<svg width="24" height="24" viewBox="0 0 24 24" fill="none" xmlns="http://www.w3.org/2000/svg">
    <path d="M7.09078 6C7.37203 6 7.62771 6.23011 7.67884 6.51136L7.72998 6.81818H18.4686C19.0055 6.81818 19.4146 7.35511 19.2612 7.86648L18.3663 11.0369C18.034 10.9602 17.676 10.9091 17.318 10.9091C17.2413 10.9091 17.1902 10.9091 17.1391 10.9347L17.9317 8.04545H7.98566L8.75271 12.1364H14.2243C13.8408 12.4943 13.534 12.9034 13.3038 13.3636H8.98282L9.21293 14.5909H12.8692C12.818 14.8722 12.7925 15.1534 12.7925 15.4091C12.7925 15.5625 12.818 15.6903 12.818 15.8182H8.70157C8.42032 15.8182 8.16464 15.6136 8.1135 15.3324L6.57941 7.22727H5.24987C4.89191 7.22727 4.63623 6.97159 4.63623 6.61364C4.63623 6.28125 4.89191 6 5.24987 6H7.09078ZM7.90896 17.8636C7.90896 17.1989 8.44589 16.6364 9.13623 16.6364C9.801 16.6364 10.3635 17.1989 10.3635 17.8636C10.3635 18.554 9.801 19.0909 9.13623 19.0909C8.44589 19.0909 7.90896 18.554 7.90896 17.8636ZM17.318 11.7273C19.3379 11.7273 20.9999 13.3892 20.9999 15.4091C20.9999 17.4545 19.3379 19.0909 17.318 19.0909C15.2726 19.0909 13.6362 17.4545 13.6362 15.4091C13.6362 13.3892 15.2726 11.7273 17.318 11.7273ZM18.9544 15.8182C19.159 15.8182 19.3635 15.6392 19.3635 15.4091C19.3635 15.2045 19.159 15 18.9544 15H17.7271V13.7727C17.7271 13.5682 17.5226 13.3636 17.318 13.3636C17.0879 13.3636 16.909 13.5682 16.909 13.7727V15H15.6817C15.4516 15 15.2726 15.2045 15.2726 15.4091C15.2726 15.6392 15.4516 15.8182 15.6817 15.8182H16.909V17.0455C16.909 17.2756 17.0879 17.4545 17.318 17.4545C17.5226 17.4545 17.7271 17.2756 17.7271 17.0455V15.8182H18.9544Z" fill="#0170EF"/>
    <path d="M3 9.06774C3 9.42569 3.25568 9.68137 3.61364 9.68137H5.65909C5.99148 9.68137 6.27273 9.42569 6.27273 9.06774C6.27273 8.73535 5.99148 8.4541 5.65909 8.4541H3.61364C3.25568 8.4541 3 8.73535 3 9.06774Z" fill="#0170EF"/>
    <path d="M3 11.1132C3 11.4711 3.25568 11.7268 3.61364 11.7268H6.06818C6.40057 11.7268 6.68182 11.4711 6.68182 11.1132C6.68182 10.7808 6.40057 10.4996 6.06818 10.4996H3.61364C3.25568 10.4996 3 10.7808 3 11.1132Z" fill="#0170EF"/>
    <path d="M7.09091 13.1586C7.09091 12.8263 6.80966 12.545 6.47727 12.545H3.61364C3.25568 12.545 3 12.8263 3 13.1586C3 13.5166 3.25568 13.7723 3.61364 13.7723H6.47727C6.80966 13.7723 7.09091 13.5166 7.09091 13.1586Z" fill="#0170EF"/>
    </svg>